<?xml version="1.0" standalone="no"?>
<!DOCTYPE svg PUBLIC "-//W3C//DTD SVG 20010904//EN"
 "http://www.w3.org/TR/2001/REC-SVG-20010904/DTD/svg10.dtd">
<svg version="1.0" xmlns="http://www.w3.org/2000/svg"
 width="282.000000pt" height="282.000000pt" viewBox="0 0 282.000000 282.000000"
 preserveAspectRatio="xMidYMid meet">
<metadata>
Created by potrace 1.11, written by Peter Selinger 2001-2013
</metadata>
<g transform="translate(0.000000,282.000000) scale(0.100000,-0.100000)"
fill="#000000" stroke="none">
<path d="M2140 1821 c-8 -5 -76 -29 -150 -55 -150 -52 -198 -76 -315 -151 -89
-58 -134 -71 -270 -80 -161 -11 -208 -16 -250 -25 -58 -13 -202 -64 -315 -112
-52 -22 -137 -56 -187 -74 -157 -57 -237 -104 -342 -202 -18 -18 -41 -32 -50
-32 -10 0 -28 -11 -40 -24 -18 -19 -20 -28 -13 -43 19 -35 139 -141 177 -157
137 -58 349 -80 478 -52 43 10 77 21 77 25 0 5 27 12 61 15 33 4 73 12 87 17
15 6 99 21 187 34 290 43 327 52 440 101 22 10 45 17 51 16 6 -1 73 29 150 68
76 38 144 70 150 70 18 0 38 27 23 32 -11 4 -5 22 19 58 2 3 11 -6 21 -19 11
-14 23 -21 30 -17 9 6 9 11 0 22 -16 20 7 49 27 33 8 -6 11 -15 8 -20 -3 -5 1
-7 8 -4 8 3 14 26 15 63 2 85 10 115 34 135 12 9 24 17 28 17 12 0 51 -98 51
-129 0 -35 8 -37 54 -16 l33 16 -29 60 c-30 64 -34 114 -8 114 10 0 17 -14 22
-40 3 -22 13 -58 21 -79 14 -37 15 -38 26 -18 17 31 13 69 -8 89 -13 12 -21
39 -25 83 -9 85 -20 111 -57 135 -17 11 -39 41 -51 67 -13 30 -33 55 -53 68
-33 21 -88 26 -115 11z m-85 -522 c3 -9 1 -28 -5 -43 -7 -19 -6 -32 2 -45 9
-15 8 -22 -7 -37 -10 -10 -23 -19 -30 -20 -7 -1 -21 -5 -32 -8 -13 -4 -26 1
-40 16 -24 26 -39 68 -25 68 6 0 12 -10 16 -22 3 -13 15 -29 26 -36 20 -12 21
-11 14 37 -5 41 -3 55 14 78 22 32 59 38 67 12z m-385 -140 c0 -12 -27 -11
-35 1 -11 17 5 32 21 19 8 -6 14 -15 14 -20z m270 -25 c0 -8 -4 -12 -10 -9 -5
3 -10 13 -10 21 0 8 5 12 10 9 6 -3 10 -13 10 -21z m-80 -15 c0 -5 -4 -9 -10
-9 -5 0 -10 7 -10 16 0 8 5 12 10 9 6 -3 10 -10 10 -16z m-440 -7 c0 -10 -6
-27 -14 -38 -13 -17 -15 -17 -21 -2 -7 18 10 58 25 58 6 0 10 -8 10 -18z m218
-97 c-13 -11 -48 -15 -48 -4 0 6 10 20 23 31 22 20 22 20 25 -2 2 -12 2 -23 0
-25z m-730 -181 c-3 -3 -48 -7 -99 -9 l-94 -4 80 9 c44 5 87 11 95 13 17 4 26
0 18 -9z"/>
<path d="M2016 1205 c4 -8 8 -15 10 -15 2 0 4 7 4 15 0 8 -4 15 -10 15 -5 0
-7 -7 -4 -15z"/>
<path d="M2570 1775 c-8 -9 -8 -15 -2 -15 12 0 26 19 19 26 -2 2 -10 -2 -17
-11z"/>
<path d="M2445 1720 c3 -5 8 -10 11 -10 2 0 4 5 4 10 0 6 -5 10 -11 10 -5 0
-7 -4 -4 -10z"/>
</g>
</svg>
